# xmcd
#
# Track frame offsets:
#   150
#   19222
#   41915
#   63291
#   79790
#   94489
#   110194
#   123086
#   140877
#   159329
#   178959
#   191831
#   212423
#   227155
#   242609
#   262166
#   280320
#   295899
#   313769
#
# Disc length: 4342 seconds
#
# Revision: 0
# Processed by: cddbd v1.5.1PL2 Copyright (c) Steve Scherf et al.
# Submitted via: uFREEDB ActiveX Control 1.5
#
DISCID=2910f413
DTITLE=Varios - O Melhor do Sertanejo (Vol.3)
DYEAR=1900
DGENRE=Sertanejo
TTITLE0=Deu Medo
TTITLE1=Pra Não Pensar em Você
TTITLE2=Adoro
TTITLE3=Agente se Entrega
TTITLE4=Dengo
TTITLE5=Enrosca, Enrosca
TTITLE6=Tô Doidão
TTITLE7=Dia de Rodeio
TTITLE8=Dois Corações e uma História
TTITLE9=Na Hora de Amar
TTITLE10=Cai no Laço
TTITLE11=Dois Amigos
TTITLE12=CUmade e Cumpade
TTITLE13=Me dá um Beijo
TTITLE14=Agenda Rabiscada
TTITLE15=Festa de Rodeio
TTITLE16=Ela é Demais
TTITLE17=Um Sonhador
TTITLE18=Onde tem Rodeio
EXTD=
EXTT0=
EXTT1=
EXTT2=
EXTT3=
EXTT4=
EXTT5=
EXTT6=
EXTT7=
EXTT8=
EXTT9=
EXTT10=
EXTT11=
EXTT12=
EXTT13=
EXTT14=
EXTT15=
EXTT16=
EXTT17=
EXTT18=
PLAYORDER=
